<?xml version="1.0" encoding="UTF-8"?>
<svg id="Layer_1" data-name="Layer 1" xmlns="http://www.w3.org/2000/svg" viewBox="0 0 42 42">
  <defs>
    <style>
      .cls-1 {
        fill: #fecf08;
        fill-rule: evenodd;
      }
    </style>
  </defs>
  <path class="cls-1" d="M32.92,3.5H9.08c-3.07,0-5.58,2.51-5.58,5.58v23.83c0,3.07,2.51,5.58,5.58,5.58h23.83c3.07,0,5.58-2.51,5.58-5.58V9.08c0-3.07-2.51-5.58-5.58-5.58ZM26.88,13.44h-2.06c-1.14,0-2.33.7-2.33,1.95v3.36h4.23l-.7,4.45h-3.52v11.01h-4.77v-11.01h-4.01v-4.45h4.01v-3.31c0-3.31,1.95-6.07,5.48-5.86l3.69.16v3.69Z"/>
</svg>