<?xml version="1.0" encoding="UTF-8"?>
<svg id="Layer_1" data-name="Layer 1" xmlns="http://www.w3.org/2000/svg" viewBox="0 0 42 42">
  <defs>
    <style>
      .cls-1 {
        fill: #fecf08;
        fill-rule: evenodd;
      }
    </style>
  </defs>
  <path class="cls-1" d="M32.92,3.5H9.08c-3.07,0-5.58,2.51-5.58,5.58v23.83c0,3.07,2.51,5.58,5.58,5.58h23.83c3.07,0,5.58-2.51,5.58-5.58V9.08c0-3.07-2.51-5.58-5.58-5.58ZM32.18,26.13c0,3.3-2.72,6.02-6.02,6.02h-10.29c-3.3,0-6.02-2.72-6.02-6.02v-10.23c0-3.3,2.72-6.02,6.02-6.02h10.29c3.3,0,6.02,2.72,6.02,6.02v10.23Z"/>
  <path class="cls-1" d="M26.1,11.79h-10.18c-2.29,0-4.16,1.87-4.16,4.16v10.13c0,2.29,1.87,4.16,4.16,4.16h10.18c2.29,0,4.16-1.87,4.16-4.16v-10.13c0-2.29-1.87-4.16-4.16-4.16ZM21.04,27.09h-.05c-3.3,0-6.02-2.72-6.02-6.08s2.72-6.08,6.02-6.08h.05c3.3,0,6.08,2.77,6.08,6.08s-2.77,6.08-6.08,6.08ZM27.01,16.32c-.75,0-1.28-.59-1.28-1.28s.53-1.28,1.28-1.28c.69,0,1.28.59,1.28,1.28s-.59,1.28-1.28,1.28Z"/>
  <path class="cls-1" d="M21.04,17.01h-.05c-2.19,0-4,1.81-4,4s1.81,4.05,4,4.05h.05c2.19,0,4-1.81,4-4.05s-1.81-4-4-4Z"/>
</svg>