<?xml version="1.0" encoding="UTF-8"?>
<svg id="Layer_1" data-name="Layer 1" xmlns="http://www.w3.org/2000/svg" viewBox="0 0 42 42">
  <defs>
    <style>
      .cls-1 {
        fill: #fecf08;
        fill-rule: evenodd;
      }
    </style>
  </defs>
  <path class="cls-1" d="M32.92,3.5H9.08c-3.07,0-5.58,2.51-5.58,5.58v23.83c0,3.07,2.51,5.58,5.58,5.58h23.83c3.07,0,5.58-2.51,5.58-5.58V9.08c0-3.07-2.51-5.58-5.58-5.58ZM15.22,30.7h-3.94v-13.23h3.94v13.23ZM13.23,15.53c-1.31,0-2.33-1.07-2.33-2.38s1.02-2.38,2.33-2.38,2.38,1.07,2.38,2.38-1.07,2.38-2.38,2.38ZM30.73,23.8v6.9h-3.89v-7.15c-.05-1.51-1.07-2.67-2.58-2.67s-2.77,1.17-2.82,2.67v7.15h-3.89v-13.23h3.89v1.85c.83-1.22,2.19-1.99,3.74-1.99h1.07c2.48,0,4.47,2.04,4.47,4.47v1.99Z"/>
</svg>