<svg id="Group_90" data-name="Group 90" xmlns="http://www.w3.org/2000/svg" xmlns:xlink="http://www.w3.org/1999/xlink" width="292" height="101.173" viewBox="0 0 292 101.173">
  <defs>
    <clipPath id="clip-path">
      <rect id="Rectangle_31" data-name="Rectangle 31" width="292" height="101.173" fill="none"/>
    </clipPath>
  </defs>
  <g id="Group_79" data-name="Group 79" clip-path="url(#clip-path)">
    <path id="Path_72" data-name="Path 72" d="M210.252,25.345l1.31,3.181a14.38,14.38,0,0,1,9.823-3.929,11.4,11.4,0,0,1,5.333,1.263,10.627,10.627,0,0,1,4.023,3.7A14.524,14.524,0,0,1,241.592,24.6a12.227,12.227,0,0,1,4.49.842,9.968,9.968,0,0,1,3.742,2.573,12.622,12.622,0,0,1,2.526,4.35,18.082,18.082,0,0,1,.936,6.081V82.507H244.96V40.221a9.663,9.663,0,0,0-1.309-5.473q-1.311-1.916-4.4-1.918a8.942,8.942,0,0,0-6.362,2.994q.092.655.141,1.263t.046,1.357V82.507h-8.326V40.221a9.663,9.663,0,0,0-1.31-5.473q-1.312-1.916-4.4-1.918a8.583,8.583,0,0,0-6.175,2.807v46.87h-8.326V25.345Z" transform="translate(-102.549 -12.332)" fill="#f1f2f2"/>
    <path id="Path_73" data-name="Path 73" d="M349.491,69.408a14.149,14.149,0,0,1-1.123,5.8,13.52,13.52,0,0,1-3.04,4.35,12.692,12.692,0,0,1-4.538,2.76,16.89,16.89,0,0,1-11.086,0,12.727,12.727,0,0,1-4.49-2.76,13.484,13.484,0,0,1-3.041-4.35,14.149,14.149,0,0,1-1.122-5.8V38.442a14.246,14.246,0,0,1,1.122-5.753,13.357,13.357,0,0,1,3.041-4.4,12.74,12.74,0,0,1,4.49-2.76,16.881,16.881,0,0,1,11.086,0,12.7,12.7,0,0,1,4.538,2.76,13.392,13.392,0,0,1,3.04,4.4,14.247,14.247,0,0,1,1.123,5.753ZM329.1,68.94a5.759,5.759,0,0,0,1.731,4.538,6.423,6.423,0,0,0,4.444,1.543,6.255,6.255,0,0,0,4.4-1.543,5.85,5.85,0,0,0,1.684-4.538V38.91a5.851,5.851,0,0,0-1.684-4.537,6.253,6.253,0,0,0-4.4-1.543,6.421,6.421,0,0,0-4.444,1.543A5.76,5.76,0,0,0,329.1,38.91Z" transform="translate(-160.959 -12.331)" fill="#f1f2f2"/>
    <path id="Path_74" data-name="Path 74" d="M424.722,69.408a14.148,14.148,0,0,1-1.123,5.8,13.52,13.52,0,0,1-3.04,4.35,12.692,12.692,0,0,1-4.538,2.76,16.89,16.89,0,0,1-11.086,0,12.725,12.725,0,0,1-4.49-2.76,13.484,13.484,0,0,1-3.041-4.35,14.148,14.148,0,0,1-1.122-5.8V38.442a14.246,14.246,0,0,1,1.122-5.753,13.357,13.357,0,0,1,3.041-4.4,12.739,12.739,0,0,1,4.49-2.76,16.881,16.881,0,0,1,11.086,0,12.705,12.705,0,0,1,4.538,2.76,13.392,13.392,0,0,1,3.04,4.4,14.246,14.246,0,0,1,1.123,5.753Zm-20.395-.468a5.759,5.759,0,0,0,1.731,4.538,6.423,6.423,0,0,0,4.443,1.543,6.256,6.256,0,0,0,4.4-1.543,5.85,5.85,0,0,0,1.684-4.538V38.91a5.851,5.851,0,0,0-1.684-4.537,6.253,6.253,0,0,0-4.4-1.543,6.421,6.421,0,0,0-4.443,1.543,5.76,5.76,0,0,0-1.731,4.537Z" transform="translate(-198.676 -12.331)" fill="#f1f2f2"/>
    <path id="Path_75" data-name="Path 75" d="M493.968,34.419a10.032,10.032,0,0,0-5.239-1.59q-4.679,0-7.952,4.864V82.506h-8.326V25.344h5.707l1.59,4.772q3.649-5.519,9.636-5.52a12.058,12.058,0,0,1,3.649.561,9.133,9.133,0,0,1,3.274,1.871Z" transform="translate(-236.863 -12.331)" fill="#f1f2f2"/>
    <path id="Path_76" data-name="Path 76" d="M548.383,56.873q-1.964,1.684-4.631,3.6t-6.034,4.069v4.584a5.848,5.848,0,0,0,1.684,4.537,6.12,6.12,0,0,0,4.3,1.544,6.253,6.253,0,0,0,4.4-1.544,5.848,5.848,0,0,0,1.684-4.537V65.48l7.577-1.965v5.894a14.7,14.7,0,0,1-1.076,5.8,12.841,12.841,0,0,1-7.437,7.11,15.537,15.537,0,0,1-5.426.935,15.141,15.141,0,0,1-5.379-.935,12.446,12.446,0,0,1-4.35-2.76,13.226,13.226,0,0,1-2.948-4.35,14.68,14.68,0,0,1-1.076-5.8V38.443a14.783,14.783,0,0,1,1.076-5.754,13.115,13.115,0,0,1,2.948-4.4,12.381,12.381,0,0,1,4.4-2.76,15.521,15.521,0,0,1,5.426-.935,17.715,17.715,0,0,1,5.052.748,11.492,11.492,0,0,1,4.491,2.526,13.506,13.506,0,0,1,3.227,4.631,17.726,17.726,0,0,1,1.263,7.157,18.937,18.937,0,0,1-2.2,9.308,28.375,28.375,0,0,1-6.97,7.905M537.718,56.5a43.869,43.869,0,0,0,6.455-4.865,17.837,17.837,0,0,0,4.116-5.333,14.312,14.312,0,0,0,1.217-6.081q0-4.49-1.825-6.221a5.992,5.992,0,0,0-4.257-1.731A5.265,5.265,0,0,0,539.215,34a7.131,7.131,0,0,0-1.5,4.818Z" transform="translate(-265.551 -12.332)" fill="#f1f2f2"/>
    <path id="Path_77" data-name="Path 77" d="M94.514,31.86a1.247,1.247,0,0,1-1.191-.88,40.407,40.407,0,0,0-77.217,0,1.247,1.247,0,0,1-2.383-.734A43.237,43.237,0,0,1,29.007,8.555a42.9,42.9,0,0,1,51.413,0A43.239,43.239,0,0,1,95.706,30.247a1.248,1.248,0,0,1-1.192,1.614" transform="translate(-6.852)" fill="#f1f2f2"/>
    <path id="Path_78" data-name="Path 78" d="M94.871,72.633a1.247,1.247,0,0,0-1.553.834A40.741,40.741,0,0,1,67.162,100.2L63.984,70.233V51.9l.878,1.036a1.247,1.247,0,1,0,1.9-1.612L55.589,38.133a1.288,1.288,0,0,0-1.9,0L42.511,51.32a1.247,1.247,0,1,0,1.9,1.612l.878-1.036V70.233L42.113,100.2A40.738,40.738,0,0,1,15.957,73.456a1.247,1.247,0,0,0-2.388.719,43.245,43.245,0,0,0,28.275,28.553l-1.506,14.2a1.246,1.246,0,0,0,.773,1.288c.189.076,4.725,1.863,13.526,1.863.411,0,.8-.007,1.2-.015l.015,0,.021,0c7.985-.156,12.113-1.776,12.293-1.848a1.247,1.247,0,0,0,.774-1.288l-1.506-14.2A43.249,43.249,0,0,0,95.7,74.186a1.246,1.246,0,0,0-.834-1.553M54.638,117.588A54.176,54.176,0,0,1,48.9,117.3L64.067,94.653l.885,8.34-9.772,14.59c-.181,0-.357,0-.542,0m6.853-48.535H55.885V64.768a5.511,5.511,0,0,0,0-10.739V49.744h5.606ZM54.638,56.374a3.024,3.024,0,0,1,.012,6.048h-.022a3.024,3.024,0,0,1,.01-6.048m-1.246-2.346a5.511,5.511,0,0,0,0,10.74v4.284H47.784V49.744h5.608ZM47.659,71.546h5.694l-6.765,10.1ZM46.023,86.969,56.354,71.546h4.729L45.134,95.359ZM44.435,101.94c0-.007,0-.014,0-.02l.131-1.238L61.953,74.726l.647,6.1L43.679,109.071Zm10.2-61.073,5.409,6.383H49.228ZM43.114,114.394l19.9-29.7.647,6.1-17.5,26.132a29.858,29.858,0,0,1-3.23-.726Zm15.139,3.08,7.109-10.614.989,9.331a38.11,38.11,0,0,1-8.1,1.283" transform="translate(-6.776 -18.908)" fill="#f1f2f2"/>
    <path id="Path_79" data-name="Path 79" d="M41.191,85.905H20.95a1.247,1.247,0,1,1,0-2.493H41.191a1.247,1.247,0,1,1,0,2.493" transform="translate(-9.878 -41.819)" fill="#f1f2f2"/>
    <path id="Path_80" data-name="Path 80" d="M5.827,85.905H1.247a1.247,1.247,0,1,1,0-2.493h4.58a1.247,1.247,0,1,1,0,2.493" transform="translate(0 -41.819)" fill="#f1f2f2"/>
    <path id="Path_81" data-name="Path 81" d="M148.155,85.905H127.914a1.247,1.247,0,0,1,0-2.493h20.241a1.247,1.247,0,1,1,0,2.493" transform="translate(-63.505 -41.819)" fill="#f1f2f2"/>
    <path id="Path_82" data-name="Path 82" d="M183.6,85.905h-4.581a1.247,1.247,0,0,1,0-2.493H183.6a1.247,1.247,0,0,1,0,2.493" transform="translate(-89.128 -41.819)" fill="#f1f2f2"/>
    <path id="Path_83" data-name="Path 83" d="M41.191,85.905H20.95a1.247,1.247,0,1,1,0-2.493H41.191a1.247,1.247,0,1,1,0,2.493" transform="translate(-9.878 -41.819)" fill="#fecf05"/>
    <path id="Path_84" data-name="Path 84" d="M5.827,85.905H1.247a1.247,1.247,0,1,1,0-2.493h4.58a1.247,1.247,0,1,1,0,2.493" transform="translate(0 -41.819)" fill="#fecf05"/>
    <path id="Path_85" data-name="Path 85" d="M148.155,85.905H127.914a1.247,1.247,0,0,1,0-2.493h20.241a1.247,1.247,0,1,1,0,2.493" transform="translate(-63.505 -41.819)" fill="#fecf05"/>
    <path id="Path_86" data-name="Path 86" d="M183.6,85.905h-4.581a1.247,1.247,0,0,1,0-2.493H183.6a1.247,1.247,0,0,1,0,2.493" transform="translate(-89.128 -41.819)" fill="#fecf05"/>
    <path id="Path_87" data-name="Path 87" d="M53.8,72.96a1.234,1.234,0,0,1-.141-.008L36.926,71.069a1.247,1.247,0,1,1,.279-2.478l16.733,1.884A1.247,1.247,0,0,1,53.8,72.96" transform="translate(-17.957 -34.384)" fill="#fecf05"/>
    <path id="Path_88" data-name="Path 88" d="M23.471,69.546a1.238,1.238,0,0,1-.141-.008l-4.584-.516a1.247,1.247,0,1,1,.279-2.478l4.585.517a1.247,1.247,0,0,1-.138,2.485" transform="translate(-8.843 -33.358)" fill="#fecf05"/>
    <path id="Path_89" data-name="Path 89" d="M118.834,72.96a1.247,1.247,0,0,1-.138-2.485l16.732-1.884a1.247,1.247,0,1,1,.279,2.478l-16.733,1.883a1.219,1.219,0,0,1-.141.008" transform="translate(-58.953 -34.384)" fill="#fecf05"/>
    <path id="Path_90" data-name="Path 90" d="M161.376,69.546a1.247,1.247,0,0,1-.138-2.485l4.584-.517a1.247,1.247,0,0,1,.279,2.478l-4.585.516a1.222,1.222,0,0,1-.141.008" transform="translate(-80.282 -33.358)" fill="#fecf05"/>
    <path id="Path_91" data-name="Path 91" d="M37.063,98.84a1.247,1.247,0,0,1-.138-2.485l16.733-1.884a1.247,1.247,0,0,1,.279,2.478L37.2,98.832a1.234,1.234,0,0,1-.141.008" transform="translate(-17.957 -47.359)" fill="#fecf05"/>
    <path id="Path_92" data-name="Path 92" d="M18.884,102.262a1.247,1.247,0,0,1-.138-2.485l4.585-.517a1.247,1.247,0,0,1,.279,2.478l-4.584.516a1.234,1.234,0,0,1-.141.008" transform="translate(-8.843 -49.76)" fill="#fecf05"/>
    <path id="Path_93" data-name="Path 93" d="M135.57,98.84a1.219,1.219,0,0,1-.141-.008L118.7,96.949a1.247,1.247,0,1,1,.279-2.478l16.732,1.884a1.247,1.247,0,0,1-.137,2.485" transform="translate(-58.953 -47.359)" fill="#fecf05"/>
    <path id="Path_94" data-name="Path 94" d="M165.963,102.262a1.216,1.216,0,0,1-.141-.008l-4.585-.516a1.247,1.247,0,0,1,.279-2.478l4.584.517a1.247,1.247,0,0,1-.138,2.485" transform="translate(-80.281 -49.76)" fill="#fecf05"/>
    <rect id="Rectangle_30" data-name="Rectangle 30" width="1.232" height="9.235" transform="translate(122.924 81.463)" fill="#f1f2f2"/>
    <path id="Path_95" data-name="Path 95" d="M256.606,168.038h1.151v1.031a2.879,2.879,0,0,1,2.462-1.191,2.613,2.613,0,0,1,2.771,2.771v4.216h-1.151v-3.855a1.883,1.883,0,0,0-1.995-2.021,1.949,1.949,0,0,0-2.087,2.047v3.828h-1.151Z" transform="translate(-128.649 -84.165)" fill="#f1f2f2"/>
    <path id="Path_96" data-name="Path 96" d="M275.773,172.923h1.178c0,.642.589,1.057,1.472,1.057.83,0,1.379-.388,1.379-.937,0-1.472-3.921-.7-3.921-3.105,0-1.245.99-2.061,2.476-2.061,1.525,0,2.516.8,2.516,2.021h-1.178c0-.589-.535-.977-1.352-.977-.776,0-1.285.361-1.285.883,0,1.432,3.921.669,3.921,3.119,0,1.258-1.017,2.1-2.57,2.1-1.593,0-2.637-.843-2.637-2.1" transform="translate(-138.259 -84.165)" fill="#f1f2f2"/>
    <path id="Path_97" data-name="Path 97" d="M291.987,172.5v-4.3h1.151v3.962a1.781,1.781,0,0,0,1.873,1.914,1.862,1.862,0,0,0,1.994-1.941V168.2h1.151v6.826h-1.151v-.991a2.751,2.751,0,0,1-2.355,1.151,2.529,2.529,0,0,1-2.664-2.69" transform="translate(-146.388 -84.327)" fill="#f1f2f2"/>
    <path id="Path_98" data-name="Path 98" d="M311.772,168.091h1.151v1.3a2.75,2.75,0,0,1,2.448-1.406h.214v1.191h-.214a2.216,2.216,0,0,0-2.448,2.315v3.426h-1.151Z" transform="translate(-156.307 -84.219)" fill="#f1f2f2"/>
    <path id="Path_99" data-name="Path 99" d="M324.335,171.45a3.416,3.416,0,0,1,3.413-3.574,3.118,3.118,0,0,1,2.65,1.392v-1.231h1.151v6.826H330.4v-1.231a3.118,3.118,0,0,1-2.65,1.392,3.416,3.416,0,0,1-3.413-3.574m6.063,0a2.443,2.443,0,1,0-2.436,2.462,2.393,2.393,0,0,0,2.436-2.462" transform="translate(-162.605 -84.165)" fill="#f1f2f2"/>
    <path id="Path_100" data-name="Path 100" d="M346.75,168.038H347.9v1.031a2.88,2.88,0,0,1,2.462-1.191,2.614,2.614,0,0,1,2.771,2.771v4.216h-1.151v-3.855a1.883,1.883,0,0,0-1.994-2.021,1.949,1.949,0,0,0-2.088,2.047v3.828H346.75Z" transform="translate(-173.843 -84.165)" fill="#f1f2f2"/>
    <path id="Path_101" data-name="Path 101" d="M367.071,171.45a3.531,3.531,0,0,1,3.64-3.574,3.35,3.35,0,0,1,3.413,2.637h-1.218a2.222,2.222,0,0,0-2.2-1.525,2.462,2.462,0,0,0,0,4.925,2.222,2.222,0,0,0,2.2-1.525h1.218a3.35,3.35,0,0,1-3.413,2.637,3.531,3.531,0,0,1-3.64-3.574" transform="translate(-184.031 -84.165)" fill="#f1f2f2"/>
    <path id="Path_102" data-name="Path 102" d="M387.9,171.451a3.628,3.628,0,0,1,7.254,0c0,.161-.014.334-.027.482h-6a2.39,2.39,0,0,0,2.449,2.034,2.464,2.464,0,0,0,2.168-1.137h1.285a3.65,3.65,0,0,1-3.467,2.2,3.537,3.537,0,0,1-3.667-3.573m1.245-.549h4.792a2.442,2.442,0,0,0-4.792,0" transform="translate(-194.474 -84.165)" fill="#f1f2f2"/>
    <path id="Path_103" data-name="Path 103" d="M425.4,163.368h1.459l3.761,9.235h-1.352l-.9-2.235h-4.524l-.9,2.235h-1.312Zm2.516,5.862-1.807-4.524-1.807,4.524Z" transform="translate(-211.391 -81.905)" fill="#f1f2f2"/>
    <path id="Path_104" data-name="Path 104" d="M445.4,171.29a3.344,3.344,0,0,1,3.413-3.413,3.157,3.157,0,0,1,2.663,1.352v-1.191h1.151v6.09a3.256,3.256,0,0,1-3.48,3.44,3.1,3.1,0,0,1-3.319-2.342h1.191a2.094,2.094,0,0,0,2.141,1.285,2.178,2.178,0,0,0,2.316-2.342v-.8a3.156,3.156,0,0,1-2.663,1.352,3.355,3.355,0,0,1-3.413-3.426m6.077,0a2.447,2.447,0,1,0-2.436,2.3,2.326,2.326,0,0,0,2.436-2.3" transform="translate(-223.302 -84.165)" fill="#f1f2f2"/>
    <path id="Path_105" data-name="Path 105" d="M467.44,171.451a3.628,3.628,0,0,1,7.254,0c0,.161-.014.334-.027.482h-6a2.39,2.39,0,0,0,2.449,2.034,2.464,2.464,0,0,0,2.168-1.137h1.285a3.649,3.649,0,0,1-3.467,2.2,3.537,3.537,0,0,1-3.667-3.573m1.245-.549h4.792a2.442,2.442,0,0,0-4.792,0" transform="translate(-234.351 -84.165)" fill="#f1f2f2"/>
    <path id="Path_106" data-name="Path 106" d="M488.97,168.038h1.151v1.031a2.88,2.88,0,0,1,2.462-1.191,2.614,2.614,0,0,1,2.771,2.771v4.216H494.2v-3.855a1.883,1.883,0,0,0-1.994-2.021,1.95,1.95,0,0,0-2.088,2.047v3.828H488.97Z" transform="translate(-245.145 -84.165)" fill="#f1f2f2"/>
    <path id="Path_107" data-name="Path 107" d="M509.828,171.45a3.531,3.531,0,0,1,3.64-3.574,3.35,3.35,0,0,1,3.413,2.637h-1.218a2.222,2.222,0,0,0-2.2-1.525,2.462,2.462,0,0,0,0,4.925,2.222,2.222,0,0,0,2.2-1.525h1.218a3.35,3.35,0,0,1-3.413,2.637,3.531,3.531,0,0,1-3.64-3.574" transform="translate(-255.602 -84.165)" fill="#f1f2f2"/>
    <path id="Path_108" data-name="Path 108" d="M532.717,175l-2.971-6.8h1.311l2.3,5.447,2.3-5.447h1.285l-4.109,9.369h-1.245Z" transform="translate(-265.588 -84.326)" fill="#f1f2f2"/>
    <path id="Path_109" data-name="Path 109" d="M394.313,153.2H224.7a.5.5,0,0,1,0-1H394.313a.5.5,0,0,1,0,1" transform="translate(-112.403 -76.307)" fill="#f1f2f2"/>
  </g>
</svg>
