<?xml version="1.0" encoding="UTF-8"?>
<svg id="Layer_1" data-name="Layer 1" xmlns="http://www.w3.org/2000/svg" viewBox="0 0 624.84 228.26">
  <defs>
    <style>
      .cls-1 {
        fill: #0c1c3d;
      }

      .cls-2 {
        fill: #fecf08;
      }
    </style>
  </defs>
  <g>
    <path class="cls-1" d="M235.62,38.78l2.63,6.38c5.88-5.25,12.44-7.88,19.7-7.88,3.88,0,7.44.84,10.69,2.53,3.25,1.69,5.94,4.16,8.07,7.41,2.88-3.25,6.22-5.72,10.04-7.41,3.81-1.69,7.72-2.53,11.73-2.53,3.12,0,6.13.56,9.01,1.69,2.88,1.13,5.38,2.85,7.5,5.16,2.13,2.32,3.81,5.22,5.07,8.72,1.25,3.5,1.88,7.57,1.88,12.19v88.37h-16.7v-84.8c0-4.75-.88-8.41-2.63-10.98-1.75-2.56-4.69-3.85-8.82-3.85-4.5,0-8.76,2-12.76,6,.12.88.22,1.72.28,2.53.06.81.09,1.72.09,2.72v88.37h-16.7v-84.8c0-4.75-.88-8.41-2.63-10.98-1.75-2.56-4.69-3.85-8.82-3.85-4.5,0-8.63,1.88-12.38,5.63v93.99h-16.7V38.78h11.44Z"/>
    <path class="cls-1" d="M397.71,127.14c0,4.38-.75,8.25-2.25,11.63s-3.54,6.29-6.1,8.72c-2.57,2.44-5.6,4.29-9.1,5.53-3.5,1.25-7.19,1.88-11.07,1.88s-7.72-.63-11.16-1.88c-3.44-1.25-6.44-3.1-9-5.53-2.57-2.44-4.6-5.35-6.1-8.72s-2.25-7.25-2.25-11.63v-62.1c0-4.25.75-8.1,2.25-11.54,1.5-3.44,3.53-6.38,6.1-8.82,2.56-2.44,5.56-4.28,9-5.53,3.44-1.25,7.16-1.88,11.16-1.88s7.57.63,11.07,1.88c3.5,1.25,6.53,3.1,9.1,5.53,2.56,2.44,4.6,5.38,6.1,8.82,1.5,3.44,2.25,7.29,2.25,11.54v62.1ZM356.81,126.21c0,4,1.16,7.04,3.47,9.1,2.31,2.06,5.28,3.1,8.91,3.1s6.57-1.03,8.82-3.1c2.25-2.06,3.38-5.1,3.38-9.1v-60.22c0-4-1.13-7.04-3.38-9.1-2.25-2.06-5.19-3.1-8.82-3.1s-6.6,1.03-8.91,3.1c-2.32,2.06-3.47,5.1-3.47,9.1v60.22Z"/>
    <path class="cls-1" d="M472.95,127.14c0,4.38-.75,8.25-2.25,11.63s-3.54,6.29-6.1,8.72c-2.57,2.44-5.6,4.29-9.1,5.53-3.5,1.25-7.19,1.88-11.07,1.88s-7.72-.63-11.16-1.88c-3.44-1.25-6.44-3.1-9-5.53-2.57-2.44-4.6-5.35-6.1-8.72s-2.25-7.25-2.25-11.63v-62.1c0-4.25.75-8.1,2.25-11.54,1.5-3.44,3.53-6.38,6.1-8.82,2.56-2.44,5.56-4.28,9-5.53,3.44-1.25,7.16-1.88,11.16-1.88s7.57.63,11.07,1.88c3.5,1.25,6.53,3.1,9.1,5.53,2.56,2.44,4.6,5.38,6.1,8.82,1.5,3.44,2.25,7.29,2.25,11.54v62.1ZM432.04,126.21c0,4,1.16,7.04,3.47,9.1,2.31,2.06,5.28,3.1,8.91,3.1s6.57-1.03,8.82-3.1c2.25-2.06,3.38-5.1,3.38-9.1v-60.22c0-4-1.13-7.04-3.38-9.1-2.25-2.06-5.19-3.1-8.82-3.1s-6.6,1.03-8.91,3.1c-2.32,2.06-3.47,5.1-3.47,9.1v60.22Z"/>
    <path class="cls-1" d="M535.23,56.98c-3.5-2.13-7.01-3.19-10.51-3.19-6.26,0-11.57,3.25-15.95,9.76v89.87h-16.7V38.78h11.44l3.19,9.57c4.88-7.38,11.32-11.07,19.32-11.07,2.5,0,4.94.38,7.32,1.13,2.37.75,4.56,2,6.57,3.75l-4.69,14.82Z"/>
    <path class="cls-1" d="M586.82,102c-2.63,2.25-5.72,4.66-9.29,7.22-3.56,2.57-7.6,5.29-12.1,8.16v9.19c0,4,1.13,7.04,3.38,9.1,2.25,2.06,5.13,3.1,8.63,3.1s6.57-1.03,8.82-3.1c2.25-2.06,3.38-5.09,3.38-9.1v-7.32l15.2-3.94v11.82c0,4.38-.72,8.25-2.16,11.63-1.44,3.38-3.44,6.29-6,8.72-2.56,2.44-5.53,4.29-8.91,5.53-3.38,1.25-7.01,1.88-10.88,1.88s-7.48-.63-10.79-1.88c-3.32-1.25-6.22-3.1-8.72-5.53-2.5-2.44-4.47-5.35-5.91-8.72-1.44-3.38-2.16-7.25-2.16-11.63v-62.1c0-4.25.72-8.1,2.16-11.54,1.44-3.44,3.41-6.38,5.91-8.82,2.5-2.44,5.44-4.28,8.82-5.53,3.38-1.25,7-1.88,10.88-1.88,3.38,0,6.75.5,10.13,1.5,3.38,1,6.38,2.69,9.01,5.07,2.63,2.38,4.78,5.47,6.47,9.29,1.69,3.82,2.53,8.6,2.53,14.35,0,7.13-1.47,13.35-4.41,18.67-2.94,5.32-7.6,10.6-13.98,15.85ZM565.44,101.25c5.63-3.63,9.94-6.88,12.95-9.76,3.88-3.63,6.63-7.19,8.25-10.69,1.62-3.5,2.44-7.57,2.44-12.19,0-6-1.22-10.16-3.66-12.48-2.44-2.31-5.29-3.47-8.54-3.47-3.63,0-6.44,1.16-8.44,3.47-2,2.32-3,5.53-3,9.66v35.46Z"/>
  </g>
  <path class="cls-1" d="M195.43,76.57c-1.07,0-2.06-.69-2.39-1.76-10.52-34.17-41.63-57.13-77.43-57.13s-66.91,22.96-77.43,57.13c-.41,1.32-1.8,2.06-3.12,1.65-1.32-.41-2.06-1.81-1.65-3.12,5.3-17.2,16.18-32.65,30.65-43.5,14.97-11.22,32.79-17.16,51.55-17.16s36.59,5.93,51.55,17.16c14.47,10.85,25.36,26.3,30.65,43.5.41,1.32-.33,2.72-1.65,3.12-.25.08-.49.11-.74.11Z"/>
  <path class="cls-1" d="M196.29,120.42c-1.32-.4-2.72.35-3.12,1.67-7.59,25.18-27.54,45.47-52.45,53.61l-6.37-60.09v-36.77l1.76,2.08c.49.58,1.2.88,1.91.88.57,0,1.15-.19,1.62-.59,1.05-.89,1.18-2.47.29-3.52l-22.41-26.44c-.95-1.12-2.87-1.12-3.81,0l-22.41,26.44c-.89,1.05-.76,2.63.29,3.52,1.05.89,2.63.76,3.52-.29l1.76-2.08v36.77l-6.37,60.09c-24.92-8.14-44.87-28.44-52.45-53.63-.4-1.32-1.79-2.07-3.11-1.67-1.32.4-2.07,1.79-1.67,3.11,8.15,27.08,29.77,48.84,56.7,57.26l-3.02,28.48c-.12,1.11.52,2.17,1.55,2.58.38.15,9.48,3.74,27.12,3.74.83,0,1.61-.02,2.4-.03,0,0,.02,0,.03,0,.01,0,.03,0,.04,0,16.01-.31,24.29-3.56,24.65-3.71,1.04-.42,1.67-1.47,1.55-2.58l-3.02-28.48c26.92-8.41,48.54-30.17,56.7-57.24.4-1.32-.35-2.72-1.67-3.11ZM115.61,210.57c-4.4,0-8.24-.24-11.5-.59l30.41-45.41,1.77,16.72-19.6,29.26c-.36,0-.72.01-1.09.01ZM129.35,113.24h-11.24v-8.59c4.9-1.14,8.56-5.53,8.56-10.77s-3.66-9.63-8.56-10.77v-8.59h11.24v38.72ZM115.61,87.82c3.34,0,6.06,2.72,6.06,6.06s-2.71,6.05-6.04,6.06c0,0-.01,0-.02,0,0,0-.02,0-.02,0-3.33-.01-6.04-2.73-6.04-6.06s2.72-6.06,6.06-6.06ZM113.11,83.11c-4.9,1.14-8.57,5.53-8.57,10.77s3.67,9.63,8.57,10.77v8.59h-11.25v-38.72h11.25v8.59ZM101.62,118.24h11.42l-13.57,20.26,2.15-20.26ZM98.33,149.17l20.72-30.93h9.48l-31.99,47.75,1.78-16.82ZM95.15,179.19s0-.03,0-.04l.26-2.48,34.86-52.05,1.3,12.22-37.94,56.65,1.52-14.3ZM115.61,56.72l10.85,12.8h-21.7l10.85-12.8ZM92.5,204.17l39.9-59.57,1.3,12.22-35.1,52.4c-2.94-.51-5.11-1.06-6.48-1.45l.38-3.6ZM122.86,210.35l14.26-21.28,1.98,18.71c-2.6.76-8.06,2.05-16.24,2.57Z"/>
  <g>
    <g>
      <g>
        <path class="cls-2" d="M91.51,90.04c-.09,0-.19,0-.28-.02l-33.56-3.78c-1.37-.15-2.36-1.39-2.2-2.76.15-1.37,1.38-2.36,2.76-2.2l33.56,3.78c1.37.15,2.36,1.39,2.2,2.76-.14,1.28-1.23,2.22-2.48,2.22Z"/>
        <path class="cls-2" d="M48.96,85.25c-.09,0-.19,0-.28-.02l-9.19-1.04c-1.37-.15-2.36-1.39-2.2-2.76.15-1.37,1.39-2.36,2.76-2.2l9.19,1.04c1.37.15,2.36,1.39,2.2,2.76-.14,1.28-1.23,2.22-2.48,2.22Z"/>
      </g>
      <g>
        <path class="cls-2" d="M139.71,90.04c-1.26,0-2.34-.94-2.48-2.22-.15-1.37.83-2.61,2.21-2.76l33.56-3.78c1.38-.16,2.61.83,2.76,2.2.15,1.37-.83,2.61-2.21,2.76l-33.56,3.78c-.09.01-.19.02-.28.02Z"/>
        <path class="cls-2" d="M182.26,85.25c-1.26,0-2.34-.94-2.48-2.22-.15-1.37.83-2.61,2.21-2.76l9.19-1.04c1.37-.15,2.61.83,2.76,2.2.15,1.37-.83,2.61-2.21,2.76l-9.19,1.04c-.09.01-.19.02-.28.02Z"/>
      </g>
    </g>
    <g>
      <g>
        <path class="cls-2" d="M57.94,115.92c-1.26,0-2.34-.94-2.48-2.22-.15-1.37.83-2.61,2.2-2.76l33.56-3.78c1.38-.16,2.61.83,2.76,2.2.15,1.37-.83,2.61-2.2,2.76l-33.56,3.78c-.1.01-.19.02-.28.02Z"/>
        <path class="cls-2" d="M39.77,117.97c-1.26,0-2.34-.94-2.48-2.22-.15-1.37.83-2.61,2.2-2.76l9.19-1.04c1.38-.16,2.61.83,2.76,2.2.15,1.37-.83,2.61-2.2,2.76l-9.19,1.04c-.1.01-.19.02-.28.02Z"/>
      </g>
      <g>
        <path class="cls-2" d="M173.28,115.92c-.09,0-.19,0-.28-.02l-33.56-3.78c-1.37-.15-2.36-1.39-2.21-2.76s1.4-2.36,2.76-2.2l33.56,3.78c1.37.15,2.36,1.39,2.21,2.76-.14,1.28-1.23,2.22-2.48,2.22Z"/>
        <path class="cls-2" d="M191.46,117.97c-.09,0-.19,0-.28-.02l-9.19-1.04c-1.37-.15-2.36-1.39-2.21-2.76.15-1.37,1.4-2.36,2.76-2.2l9.19,1.04c1.37.15,2.36,1.39,2.21,2.76-.14,1.28-1.23,2.22-2.48,2.22Z"/>
      </g>
    </g>
  </g>
  <g>
    <path class="cls-1" d="M266.14,176.05h2.47v18.52h-2.47v-18.52Z"/>
    <path class="cls-1" d="M276.24,180.88h2.31v2.07c1.07-1.53,2.79-2.39,4.94-2.39,3.33,0,5.56,2.2,5.56,5.56v8.45h-2.31v-7.73c0-2.44-1.56-4.05-4-4.05s-4.19,1.64-4.19,4.11v7.68h-2.31v-13.69Z"/>
    <path class="cls-1" d="M295.4,190.68h2.36c0,1.29,1.18,2.12,2.95,2.12,1.66,0,2.76-.78,2.76-1.88,0-2.95-7.86-1.4-7.86-6.23,0-2.5,1.99-4.13,4.97-4.13s5.05,1.61,5.05,4.05h-2.36c0-1.18-1.07-1.96-2.71-1.96s-2.58.72-2.58,1.77c0,2.87,7.86,1.34,7.86,6.25,0,2.52-2.04,4.21-5.15,4.21s-5.29-1.69-5.29-4.21Z"/>
    <path class="cls-1" d="M311.62,189.5v-8.62h2.31v7.94c0,2.31,1.48,3.84,3.76,3.84s4-1.56,4-3.89v-7.89h2.31v13.69h-2.31v-1.99c-1.05,1.48-2.66,2.31-4.72,2.31-3.19,0-5.34-2.15-5.34-5.4Z"/>
    <path class="cls-1" d="M331.4,180.88h2.31v2.6c1.05-1.77,2.76-2.82,4.91-2.82h.43v2.39h-.43c-3.06,0-4.91,1.83-4.91,4.64v6.87h-2.31v-13.69Z"/>
    <path class="cls-1" d="M343.96,187.72c0-4.08,2.92-7.17,6.84-7.17,2.28,0,4.16,1.07,5.31,2.79v-2.47h2.31v13.69h-2.31v-2.47c-1.15,1.72-3.03,2.79-5.31,2.79-3.92,0-6.84-3.09-6.84-7.17ZM356.12,187.72c0-2.82-2.09-4.94-4.88-4.94s-4.91,2.12-4.91,4.94,2.09,4.94,4.91,4.94,4.88-2.12,4.88-4.94Z"/>
    <path class="cls-1" d="M366.38,180.88h2.31v2.07c1.07-1.53,2.79-2.39,4.94-2.39,3.33,0,5.56,2.2,5.56,5.56v8.45h-2.31v-7.73c0-2.44-1.56-4.05-4-4.05s-4.19,1.64-4.19,4.11v7.68h-2.31v-13.69Z"/>
    <path class="cls-1" d="M386.7,187.72c0-4.08,3.14-7.17,7.3-7.17,3.46,0,6.23,2.17,6.84,5.29h-2.44c-.56-1.83-2.28-3.06-4.4-3.06-2.82,0-4.91,2.12-4.91,4.94s2.09,4.94,4.91,4.94c2.12,0,3.84-1.23,4.4-3.06h2.44c-.62,3.11-3.38,5.29-6.84,5.29-4.16,0-7.3-3.09-7.3-7.17Z"/>
    <path class="cls-1" d="M407.53,187.72c0-4.08,3.14-7.17,7.27-7.17s7.27,3.09,7.27,7.17c0,.32-.03.67-.05.97h-12.02c.4,2.42,2.33,4.08,4.91,4.08,1.91,0,3.57-.91,4.35-2.28h2.58c-1.07,2.63-3.73,4.4-6.95,4.4-4.21,0-7.35-3.09-7.35-7.17ZM410.03,186.62h9.61c-.4-2.28-2.34-3.95-4.83-3.95s-4.32,1.61-4.78,3.95Z"/>
    <path class="cls-1" d="M448.82,176.05h2.93l7.54,18.52h-2.71l-1.8-4.48h-9.07l-1.8,4.48h-2.63l7.54-18.52ZM453.86,187.8l-3.62-9.07-3.62,9.07h7.25Z"/>
    <path class="cls-1" d="M465.03,187.4c0-3.89,2.95-6.84,6.84-6.84,2.31,0,4.19,1.05,5.34,2.71v-2.39h2.31v12.21c0,4.16-2.76,6.9-6.98,6.9-3.46,0-6.12-1.83-6.66-4.7h2.39c.46,1.56,2.17,2.58,4.29,2.58,2.82,0,4.64-1.83,4.64-4.7v-1.61c-1.15,1.66-3.03,2.71-5.34,2.71-3.89,0-6.84-2.98-6.84-6.87ZM477.22,187.4c0-2.6-2.09-4.62-4.88-4.62s-4.91,2.01-4.91,4.62,2.09,4.62,4.91,4.62,4.88-1.99,4.88-4.62Z"/>
    <path class="cls-1" d="M487.07,187.72c0-4.08,3.14-7.17,7.27-7.17s7.27,3.09,7.27,7.17c0,.32-.03.67-.05.97h-12.02c.4,2.42,2.33,4.08,4.91,4.08,1.91,0,3.57-.91,4.35-2.28h2.58c-1.07,2.63-3.73,4.4-6.95,4.4-4.21,0-7.35-3.09-7.35-7.17ZM489.57,186.62h9.61c-.4-2.28-2.34-3.95-4.83-3.95s-4.32,1.61-4.78,3.95Z"/>
    <path class="cls-1" d="M508.6,180.88h2.31v2.07c1.07-1.53,2.79-2.39,4.94-2.39,3.33,0,5.56,2.2,5.56,5.56v8.45h-2.31v-7.73c0-2.44-1.56-4.05-4-4.05s-4.19,1.64-4.19,4.11v7.68h-2.31v-13.69Z"/>
    <path class="cls-1" d="M529.46,187.72c0-4.08,3.14-7.17,7.3-7.17,3.46,0,6.23,2.17,6.84,5.29h-2.44c-.56-1.83-2.28-3.06-4.4-3.06-2.82,0-4.91,2.12-4.91,4.94s2.09,4.94,4.91,4.94c2.12,0,3.84-1.23,4.4-3.06h2.44c-.62,3.11-3.38,5.29-6.84,5.29-4.16,0-7.3-3.09-7.3-7.17Z"/>
    <path class="cls-1" d="M555.33,194.51l-5.96-13.63h2.63l4.62,10.92,4.62-10.92h2.58l-8.24,18.79h-2.5l2.25-5.15Z"/>
  </g>
  <path class="cls-1" d="M584.98,166.88H244.83c-.55,0-1-.45-1-1s.45-1,1-1h340.15c.55,0,1,.45,1,1s-.45,1-1,1Z"/>
  <g>
    <path class="cls-2" d="M82.43,101.09h-40.59c-1.38,0-2.5-1.12-2.5-2.5s1.12-2.5,2.5-2.5h40.59c1.38,0,2.5,1.12,2.5,2.5s-1.12,2.5-2.5,2.5Z"/>
    <path class="cls-2" d="M31.31,101.09h-9.19c-1.38,0-2.5-1.12-2.5-2.5s1.12-2.5,2.5-2.5h9.19c1.38,0,2.5,1.12,2.5,2.5s-1.12,2.5-2.5,2.5Z"/>
    <path class="cls-2" d="M189.39,101.09h-40.59c-1.38,0-2.5-1.12-2.5-2.5s1.12-2.5,2.5-2.5h40.59c1.38,0,2.5,1.12,2.5,2.5s-1.12,2.5-2.5,2.5Z"/>
    <path class="cls-2" d="M209.09,101.09h-9.19c-1.38,0-2.5-1.12-2.5-2.5s1.12-2.5,2.5-2.5h9.19c1.38,0,2.5,1.12,2.5,2.5s-1.12,2.5-2.5,2.5Z"/>
  </g>
</svg>