<svg version="1.1" id="svg3182" xmlns:cc="http://creativecommons.org/ns#" xmlns:svg="http://www.w3.org/2000/svg" xmlns:dc="http://purl.org/dc/elements/1.1/" xmlns:rdf="http://www.w3.org/1999/02/22-rdf-syntax-ns#" xmlns="http://www.w3.org/2000/svg" xmlns:xlink="http://www.w3.org/1999/xlink" x="0px" y="0px" viewBox="-116 466 847 149" style="enable-background:new -116 466 847 149;" xml:space="preserve">
 <style type="text/css">
  .st0{fill:#FFFFFF;}
 </style>
 <g id="layer1" transform="translate(33.275242,-572.44455)">
  <path id="path82" class="st0" d="M-147.4,1091.8c0-41.6,23.4-51.4,62.6-51.4h65.6c49.5,0,56.3,17.8,56.3,45.5v4.5H-5.7
		c0-14.1-8-15.9-22-15.9H-75c-22,0-27.7,5.3-27.7,29.6v17.7c0,24.4,5.7,29.6,27.7,29.6h46.5c11.4,0,22.8-1.8,22.8-15.5v-4.1h-54.2
		v-29.4h97.8v40.4c0,40.8-21.2,42.8-70.3,42.8h-52.4c-39.3,0-62.6-9.8-62.6-51.4L-147.4,1091.8L-147.4,1091.8z">
  </path>
  <path id="path86" class="st0" d="M48.7,1041.9h155.4v33H92.2v22.8h106v29.4h-106v22.8h114.4v34.1h-158L48.7,1041.9L48.7,1041.9z">
  </path>
  <path id="path88" class="st0" d="M219.8,1041.9h43.6V1184h-43.6V1041.9z">
  </path>
  <path id="path92" class="st0" d="M276.6,1091.8c0-41.6,23.4-51.4,62.6-51.4h51.2c62,0,70.1,13.3,69.7,53.6h-43.6v-3.9
		c0-10.2-7.5-13.2-20.4-13.2h-47.5c-23,0-27.3,10.8-27.3,28.5v15.3c0,20.6,4.3,28.5,24.9,28.5h46.5c19.6,0,25.5-2,25.5-19.6h43.6
		v13.4c0,23.9-8.6,42.8-52.4,42.8h-70.3c-39.3,0-62.6-9.8-62.6-51.4V1091.8L276.6,1091.8z">
  </path>
  <path id="path96" class="st0" d="M514.2,1120.6c0,20.6,4.3,28.5,24.9,28.5h55.7c20.6,0,24.9-7.9,24.9-28.5v-15.3
		c0-17.7-4.3-28.5-27.3-28.5h-51c-23,0-27.3,10.8-27.3,28.5V1120.6z M469.5,1091.8c0-41.6,23.4-51.4,62.6-51.4H602
		c39.3,0,62.6,9.8,62.6,51.4v42.4c0,41.6-23.4,51.4-62.6,51.4h-69.9c-39.3,0-62.6-9.8-62.6-51.4V1091.8z">
  </path>
  <path id="path100" class="st0" d="M681.1,1167.9c2.2,0,5.6,0.4,5.6-2.8c0-2.4-2.1-2.7-4.1-2.7h-4.5v5.6H681.1L681.1,1167.9z
		 M688.5,1176.6h-2.3l-4.5-7.2h-3.5v7.2h-1.9v-15.7h6.9c1.3,0,2.6,0.1,3.8,0.8c1.2,0.7,1.8,2.1,1.8,3.4c0,3.1-2.2,4.2-5,4.3
		L688.5,1176.6L688.5,1176.6z M693.8,1168.7c0-6.8-5.5-12.3-12.3-12.3c-6.9,0-12.4,5.5-12.4,12.3c0,6.9,5.5,12.4,12.4,12.4
		C688.3,1181.1,693.8,1175.6,693.8,1168.7 M667.4,1168.7c0-7.7,6.3-14,14.1-14c7.8,0,14,6.3,14,14c0,7.8-6.3,14.1-14,14.1
		C673.7,1182.9,667.4,1176.5,667.4,1168.7">
  </path>
 </g>
</svg>