<svg version="1.1" id="Layer_1" xmlns:x="ns_extend;" xmlns:i="ns_ai;" xmlns:graph="ns_graphs;" xmlns="http://www.w3.org/2000/svg" xmlns:xlink="http://www.w3.org/1999/xlink" x="0px" y="0px" viewBox="0 0 1289.9 154" style="enable-background:new 0 0 1289.9 154;" xml:space="preserve">
 <style type="text/css">
  .st0{fill:#FFFFFF;}
 </style>
 <metadata>
  <sfw xmlns="ns_sfw;">
   <slices>
   </slices>
   <sliceSourceBounds bottomLeftOrigin="true" height="154" width="1289.9" x="-835.5" y="-0.1">
   </sliceSourceBounds>
  </sfw>
 </metadata>
 <g>
  <path class="st0" d="M626.4,83.5c13.9-1.4,23.8-8,29.4-19.6c4.6-9.4,11.6-24.7,11.7-24.9c7-14.5,4.9-23.3,1.8-28.3
		c-4.6-7.3-13.5-9.9-20.4-9.9h-69.4l-71.8,152.7h36.1l27.5-60h19.3c3.3,0.2,6.3,1.8,8.2,4.5c2.3,3.8,1.7,9.7-2,17.5
		c-8.7,18.7-15.6,38.1-15.6,38.1h36.6c1-5,2.5-10,4.4-14.8c2.8-6.7,11.3-27.8,11.3-28C640.5,93.7,631.8,86.9,626.4,83.5z
		 M622.5,58.3c-3.1,6.4-7.7,9.7-14,9.7h-25.2l19.1-41.6H630c1.5,0.1,2.8,0.8,3.7,2c1.1,1.8,0.7,4.8-1.1,8.8l-6.3,13.2L622.5,58.3z">
  </path>
  <path class="st0" d="M241.3,83.5c13.9-1.5,23.7-8,29.4-19.6c4.6-9.4,11.6-24.7,11.7-24.9c7-14.5,4.9-23.3,1.8-28.3
		c-4.6-7.2-13.5-9.8-20.4-9.8h-69.5l-71.8,152.7h36.2l27.5-60h19.4c3.3,0.2,6.3,1.8,8.2,4.5c2.3,3.8,1.7,9.7-2,17.5
		c-8.7,18.7-15.6,38.1-15.6,38.1h36.6c1-5,2.5-10,4.4-14.8c2.8-6.7,11.3-27.8,11.3-28C255.4,93.7,246.8,86.9,241.3,83.5z
		 M237.5,58.3c-3.1,6.5-7.7,9.6-14,9.6h-25.2L218,26.3h27c1.5,0.1,2.8,0.8,3.7,2c1.1,1.8,0.7,4.8-1.1,8.8l-6.3,13.2L237.5,58.3z">
  </path>
  <path class="st0" d="M410.7,38.9C423.3,11.8,409,0,390.8,0H347c-18.4,0-31.4,8.7-39.8,26.6c-4.5,9.6-12,25.4-20.7,43.5l-18.3,38.6
		c-18.4,38.7,9.1,45.2,22.6,45.2h27.7c27.7,0.3,41.4-7.5,52.1-29.9c7.2-14.9,17.1-36.2,27.7-58.8L410.7,38.9z M374.7,34.6
		l-36.8,78.3c-5.1,10.8-8.5,12.6-16.4,12.6h-15.9c-2.8,0-8.5-0.8-4.2-10c6.2-13.3,32-69,37.3-80.2c3.6-7.6,7.3-9.2,12.2-9.2h19.8
		C374.4,26,377.8,28,374.7,34.6z">
  </path>
  <path class="st0" d="M470.8,68.8l-12,25.4h19l-10.7,23.1c-3.1,6.7-5.2,8.1-12.6,8.1h-18.9c-5.7,0-7.6-2.8-4.2-10
		c4.3-9.1,38.2-80,38.2-80c3.8-8.1,6.1-9.3,12.1-9.3h19.5c4.7,0,7.3,2.2,4.1,8.5c-0.7,1.4-8.5,18.4-8.5,18.4l34.4,0.3l7.8-16.8
		c11.5-24.6,1.2-36.1-22.5-36.4h-37.4c-18.2-0.5-34.9,10-42.4,26.6c-6.8,14.5-39,82.1-39,82.1c-11.8,24.7-4.9,45.2,27.2,45.2h28.7
		c23,0.2,34.2-3.4,44.7-26.3L525.3,69L470.8,68.8z">
  </path>
  <polygon class="st0" points="989.4,0.4 917.5,153.3 954.6,153.3 1027,0.4 	">
  </polygon>
  <polygon class="st0" points="1118.8,0.4 1034.9,135.1 1077.4,0.4 1038.5,0.4 1002.9,153.3 1053,153.3 1157.8,0.4 	">
  </polygon>
  <path class="st0" d="M831.7,100.3l-3.1-56.5c-0.4-6.8,1.3-16.1,13.8-16.1h25l12.9-27.3h-42.7c-33.9,0-45.2,20.7-44,45
		c0.8,14.8,2.8,63.1,2.8,63.1c0.5,11.6-4,17-14.8,17H753l-12.8,27.7h45.5C815.9,153.4,833.7,133.7,831.7,100.3z">
  </path>
  <path class="st0" d="M914,43.8c-0.4-6.8,1.3-16.1,13.8-16.1h25l12.9-27.3H923c-28,0-45.6,15.3-44,45c0.8,14.8,2.8,63.1,2.8,63.1
		c0.5,11.6-3.9,17-14.8,17h-27.8l-12.8,27.7h44.8c33.2,0,47.7-23.7,46-53.1L914,43.8z">
  </path>
  <path class="st0" d="M704.5,85h46.4l11.9-25.4h-46.6L731,27.8h48.1l12.6-27.1h-83.7l-71.4,152.7H727l13-27.7h-54.9L704.5,85z">
  </path>
  <path class="st0" d="M1098.7,153.3h90.5l13.1-27.7h-55l19.3-40.7h46.4l11.9-25.4h-46.6l14.8-31.7h48.1l12.6-27.1h-83.7
		L1098.7,153.3z">
  </path>
  <path class="st0" d="M142.6,73.9c3-6.2,9-19.2,15.8-34.2c12-26.5-2.8-38.7-18.5-38.8H71.2L0,153.8h37l24.9-53.5c0,0,20.9,0,36.1,0
		C121.1,100.4,133.2,93.3,142.6,73.9z M123.5,38.4c-6.7,14.1-11.8,24.7-12.3,25.9c-3,6.4-7.3,9.2-13.8,9.2H74.1l22-47.6h23.3
		C124.5,26,128.2,28.5,123.5,38.4z">
  </path>
  <path class="st0" d="M1283.8,11.1c0.1-1.2-0.5-2.3-1.6-3c-1-0.5-2.2-0.8-3.4-0.7h-6.1v13.9h1.7v-6.4h3.1l4,6.4h2l-4.2-6.4
		C1281.9,14.8,1283.8,13.8,1283.8,11.1z M1277.2,13.6h-2.6V8.5h4c1.7,0,3.6,0.3,3.6,2.4C1282.1,13.9,1279.1,13.6,1277.2,13.6z">
  </path>
  <path class="st0" d="M1277.5,1.9c-6.9,0-12.5,5.5-12.5,12.4c0,6.9,5.5,12.5,12.4,12.5c6.9,0,12.5-5.5,12.5-12.4c0,0,0,0,0-0.1
		C1289.9,7.5,1284.3,1.9,1277.5,1.9z M1277.5,25.3c-6,0-10.9-5-10.9-11c0-6,5-10.9,11-10.9c6,0,10.9,4.9,10.9,10.9
		c0,6-4.9,11-10.9,11C1277.5,25.3,1277.5,25.3,1277.5,25.3L1277.5,25.3z">
  </path>
 </g>
</svg>