<svg version="1.1" id="Layer_1" xmlns="http://www.w3.org/2000/svg" xmlns:xlink="http://www.w3.org/1999/xlink" x="0px" y="0px" viewBox="-587.1 107.2 776.2 107.8" style="enable-background:new -587.1 107.2 776.2 107.8;" xml:space="preserve">
 <style type="text/css">
  .st0{fill:#FFFFFF;}
 </style>
 <g>
  <path class="st0" d="M-133.2,138.9l0.2-0.4L-133.2,138.9c-4-2.8-9.8-4-15.5-4c-12.9,0-22.1,6.4-28.1,15.3c-6,9-8.8,20.5-8.8,30.8
		c0,7.4,1.1,14.4,5.6,20.6c2.2,3.1,7.6,10.4,25.1,10.4c12.1,0,17.9-3.2,21-5l0.5-0.7c0.6-2.7,2.7-14.8,3.5-17.8l-0.6-0.5
		c-6.1,4.9-12.8,8.4-20.4,8.4c-5.1,0-9-1.2-11.6-3.5c-2.6-2.3-3.9-5.7-3.9-10c0-1.6,0.1-3,0.2-4.6l0-0.4l0.4,0
		c11.9-0.3,17.9-0.5,27.9-0.5c3.3,0,6.9,0,11.3,0.1l0.8-0.5c1-4.6,2.1-9.9,2.1-16.4C-123.7,155-124.3,144.7-133.2,138.9
		 M-141.1,164.2l-0.1,0.3l-11.7,0.1l-11.5,0.2l0.1-0.4l0.1-0.2c0.2-0.8,0.5-1.7,0.8-2.6c0.8-2.5,1.9-5.3,3.9-7.8
		c0.4-0.4,0.7-0.9,1.1-1.3c3.6-3.9,7-4.5,9.1-4.5c3.1,0,5.3,1.2,6.8,3.1c0.2,0.3,0.5,0.6,0.7,1c0.7,1.2,1.2,2.6,1.3,4.1
		c0.1,0.5,0.1,1.1,0.1,1.6C-140.4,159.9-140.8,162.1-141.1,164.2 M-186.4,151l-0.8,0.8l-11.5-0.3l-5.3,25c-0.7,3.1-2.4,11-2.4,13.5
		c0,2.4,0.9,4,2.1,4.9c1.2,1,2.8,1.3,4.1,1.3c3.2,0,4.3-0.9,6.4-1.7l0.4,0.3l-2.8,14.4l-1,0.9c-3.9,0.8-6.8,1.5-11,1.5
		c-10.7-0.1-18.4-3.6-18.4-16.1c0-5.8,2.4-16.4,4.1-24.3l4.2-19.9l-9,0.3l-0.5-0.8l2.6-14l0.8-0.5h9.2l3.7-18.4l0.7-0.8
		c9.2-2.3,11.8-3.5,20.2-6.2l0.4,0.5l-2.8,11.9l-2.9,13.4l11.8-0.4l0.3,0.6L-186.4,151z M-44.9,127.4l-0.6,0.7l-30.3-0.1l-4.9,25.3
		l26.5-0.8l0.4,0.6c-2.2,7.3-2.7,9.3-4.2,15.6l-0.7,0.6l-25.2-0.1l-3.3,17.5l-4.2,22.8l-0.6,0.5l-21.7,0.6l-0.3-0.6l3.8-19.4
		l5.8-27.4c4.3-21.3,5.6-28,9.7-51.2l0.7-0.6h31.7l20.1-0.5l0.4,0.5L-44.9,127.4z M-2.1,139.7c-4.2-3-10.9-4.5-20.2-4.5
		c-4.6,0-9.1,0.4-13.8,1.3c-4.1,0.8-6.7,1.4-8.9,2.1l-0.6,0.6l-3,15.3l1,0.6c1.9-0.9,4.7-2,8.5-3.3c3.8-1.3,7.3-2,10.5-2
		c4.6,0,8.1,0.6,10.5,1.9c2.5,1.3,4.2,4.2,4.2,7.4c0,0.8-0.1,1.5-0.2,2.1c-0.1,0.6-0.2,1-0.2,1.3l-0.1,0.3c0,0-1.5,0.1-3.1,0.2
		c-1,0.1-2.4,0.3-3.9,0.4c-2.5,0.3-5.4,0.6-8,1.1c-6.1,1-23.2,3.7-28.3,15.1c-5.4,9.4-4.5,21.9,0.8,27.9c1.9,2.1,4.7,4.2,8.6,4.9
		l0,0c0.2,0.1,0.8,0.1,0.9,0.2c14.8,2.3,25.4-10.6,25.4-10.6l-1.6,8l0.7,0.6l16.6-0.6l0.7-0.6l9.8-49.2c0.2-1,0.4-2.3,0.5-3.7
		c0.1-1.4,0.2-2.6,0.2-3.4C4.9,147.1,2.1,142.7-2.1,139.7 M-19.2,188.9c0,0-4,6.2-9.7,8.5c-5.7,2.2-9.9,0.5-11.5-1.8
		c-1.3-1.7-4-7.2,1.1-13.4c5.2-6.2,22.6-6.6,22.6-6.6L-19.2,188.9z M61.5,134.2l-4.1,21.2l-0.9,0.9c-1.2-0.2-2.6-0.4-4.4-0.4
		c-5.5,0-13.3,1.8-19.4,9.9l-0.1,0.1l-8.4,43.9l-0.6,0.5l-18.3,0.6L5,210.3l14.4-73.7l0.8-0.8l18.1-1.8l0.7,0.8l-2.1,10.7l0.9-0.8
		c3.8-3.4,7.1-5.8,10.9-7.9c3.7-2.1,7.4-3.2,11.2-3.2c0.4,0,0.7,0,1.1,0L61.5,134.2z M159.3,152.8c0,4.5-1,9.1-2,13.6l-8.5,43.3
		l-0.7,0.5l-19.1,0.7l-0.5-0.7c0,0,9.8-47.9,9.8-50.2c0-2.2-1.1-8-7.2-8c-4.8,0-9.7,4.8-9.7,4.8l-10.3,52.9l-0.6,0.5l-8.2,0.3
		l-7.4,0.2l-3.6,0.1l-0.2-0.3l-0.2-0.4c0,0,1.5-7.3,3.3-16.3H94c2.9-14.1,6.5-32.5,6.5-33.9c0-2.2-1.1-8-7.2-8
		c-4.8,0-9.7,4.8-9.7,4.8l-10.3,52.9l-0.7,0.5l-3,0.1l-16.3,0.5l-0.4-0.6l14.3-73.6l0.7-0.7l19.1-1.8l0.8,0.8l-2,10.4
		c0,0,9.2-10.1,20.9-10.3c11-0.2,13.2,10.3,13.2,10.3s10.9-10.6,22.5-10.3C148.4,134.9,159.3,137.5,159.3,152.8 M-240,139.7
		c-4.2-3-10.9-4.5-20.1-4.5c-4.6,0-9.2,0.4-13.7,1.3c-4.1,0.8-6.7,1.4-8.9,2.1l-0.6,0.6l-3,15.3l1,0.6c1.9-0.9,4.7-2,8.5-3.3
		c3.8-1.3,7.3-2,10.5-2c4.6,0,8.1,0.6,10.5,1.9c2.5,1.3,4.2,4.2,4.2,7.4c0,0.8-0.1,1.5-0.2,2.1c-0.1,0.6-0.2,1-0.2,1.3l0,0.3
		c0,0-1.5,0.1-3.1,0.2c-1,0.1-2.4,0.3-3.9,0.4c-2.5,0.3-5.4,0.6-8,1.1c-6.1,1-23.2,3.7-28.4,15.1c-5.4,9.4-4.5,21.9,0.8,27.9
		c1.9,2.1,4.7,4.2,8.6,4.9l0,0c0.2,0.1,0.8,0.1,0.9,0.2c14.8,2.3,25.4-10.6,25.4-10.6l-1.6,8l0.6,0.6l16.6-0.6l0.7-0.6l9.8-49.2
		c0.2-1,0.4-2.3,0.5-3.7c0.1-1.4,0.2-2.6,0.2-3.4C-232.9,147.1-235.8,142.7-240,139.7 M-257.1,188.9c0,0-4,6.2-9.7,8.5
		c-5.7,2.2-9.9,0.5-11.5-1.8c-1.3-1.7-4-7.2,1.2-13.4c5.2-6.2,22.6-6.6,22.6-6.6L-257.1,188.9z M-297.2,151l-0.8,0.8l-11.5-0.3
		l-5.3,25c-0.7,3.1-2.4,11-2.4,13.5c0,2.4,0.9,4,2.1,4.9c1.2,1,2.8,1.3,4.1,1.3c3.2,0,4.3-0.9,6.4-1.7l0.4,0.3l-2.8,14.4l-1,0.9
		c-3.9,0.8-6.8,1.5-11,1.5c-10.6-0.1-18.4-3.6-18.4-16.1c0-5.8,2.4-16.4,4.1-24.3l4.2-19.9l-9,0.3l-0.5-0.8l2.6-14l0.8-0.5h9.1
		l3.7-18.4l0.7-0.8c9.1-2.3,11.8-3.5,20.2-6.2l0.4,0.5l-2.8,11.9l-2.8,13.4l11.7-0.4l0.3,0.6L-297.2,151z M-340.3,117.1l-3.5,17.9
		l-0.8,0.2c-1.4-1.9-2.2-2.7-4.2-4.2c-4.3-3.3-9.4-5.2-14.6-5.2c-4.1,0-7.4,1.3-9.8,3.4c-2.4,2.1-3.7,5.1-3.7,8.5
		c0,6.3,4.3,9.4,12,14l3,1.7c6.5,4.2,16.5,10.7,16.5,25.4c0,16.7-10.7,33.5-36.5,33.6c-6.3,0-12.5-1.1-18.4-3.3
		c-4-1.5-5.9-2.9-8.4-4.7l-0.2-1.2l3.4-17.5l0.8-0.3c1.5,2,3.5,3.6,6.4,5.6c6.2,4.1,12.1,4.6,14.7,4.6c9.1,0,16.2-5.2,16.2-13.2
		c0-7.2-5.7-10.8-11.7-14.3l-4.1-2.5c-6.5-4.2-15.5-10-15.5-24.4c0-5.6,1.6-13.5,6.5-20.1c6.5-8.6,16.7-11.7,27-11.7
		c13.2,0,20.8,4.7,24.3,7L-340.3,117.1z M-526.3,148.7c5.2,3.2,12.5,5.3,20.8,5.3c8.2,0,15.6-2,20.9-5.3c5.3-3.2,8.4-7.6,8.4-12.1
		c0-4.6-3.1-8.9-8.4-12.1c-5.3-3.2-12.6-5.2-20.9-5.2c-8.2,0-15.6,2-20.8,5.2c-5.2,3.2-8.3,7.5-8.3,12.1
		C-534.6,141.1-531.6,145.5-526.3,148.7 M-525,173.5c-5.3-3.2-12.6-5.2-20.9-5.2c-8.2,0-15.6,2-20.8,5.2c-5.2,3.2-8.3,7.5-8.3,12
		c0,4.6,3.1,8.9,8.3,12.2c5.2,3.2,12.5,5.2,20.8,5.3c8.2,0,15.6-2.1,20.9-5.3c5.3-3.2,8.4-7.5,8.4-12.1
		C-516.6,181-519.7,176.7-525,173.5 M-444.4,173.5c-5.3-3.2-12.7-5.2-20.9-5.2c-8.2,0-15.6,2-20.8,5.2c-5.2,3.2-8.3,7.5-8.3,12.1
		c0,4.6,3.1,8.9,8.3,12.1c5.2,3.2,12.5,5.2,20.8,5.3c8.2,0,15.6-2.1,20.9-5.3c5.3-3.2,8.4-7.5,8.4-12.1
		C-436,181-439.1,176.7-444.4,173.5 M-465.4,156.3c-3.7,0-7.3,0.4-10.7,1c7.5-5.3,12.1-12.7,12.1-20.8c0-16.3-18.5-29.3-41.5-29.3
		c-23,0-41.3,13-41.3,29.3c0,8.1,4.5,15.4,11.9,20.8c-3.5-0.7-7.1-1-10.9-1c-23,0-41.3,13-41.3,29.2c0,16.3,18.2,29.5,41.2,29.5
		c19.6,0,35.9-9.6,40.4-22.4c4.4,12.9,20.5,22.4,40,22.4c23,0,41.6-13.2,41.6-29.5C-423.9,169.2-442.4,156.3-465.4,156.3
		 M-539.3,136.5c0-7.3,5.6-12.3,8.9-14.6c6.5-4.6,15.4-7.1,24.9-7.1c9.6,0,18.5,2.5,25,7.1c3.3,2.3,8.9,7.3,9,14.6
		c-0.1,12.2-15.8,22-34.1,22c-9.5,0-18.3-2.5-24.8-7.2C-536.1,147.2-539.3,142-539.3,136.5 M-545.9,207.5c-9.5,0-18.3-2.5-24.8-7.2
		c-5.6-4-8.9-9.3-8.9-14.7c0-7.3,5.6-12.3,8.9-14.6c6.5-4.6,15.4-7.1,24.9-7.1c9.6,0,18.5,2.5,25,7.2c3.3,2.3,8.9,7.3,9,14.6
		C-511.9,197.7-527.6,207.5-545.9,207.5 M-505.5,178.5c-1.8-5.2-5.5-9.8-10.6-13.5c3.3,0.6,6.9,1,10.5,1c3.7,0,7.3-0.3,10.8-1
		C-500,168.6-503.7,173.3-505.5,178.5 M-465.5,207.5c-9.5,0-18.3-2.5-24.8-7.2c-5.7-4-8.9-9.3-8.9-14.7c0-7.3,5.6-12.3,8.9-14.6
		c6.5-4.6,15.4-7.1,24.9-7.1c9.6,0,18.5,2.5,25.1,7.2c3.3,2.3,8.9,7.3,8.9,14.6C-431.5,197.7-447.2,207.5-465.5,207.5">
  </path>
  <g>
   <path class="st0" d="M189.1,149.6c-0.1,6.5-4.8,11.4-10.9,11.3c-6.1-0.1-10.8-5-10.8-11.5c0.1-6.6,4.7-11.4,11-11.4
			C184.5,138.1,189.1,143.1,189.1,149.6 M168.8,149.4c0,5.6,4.1,10.1,9.3,10.2c5.2,0,9.5-4.4,9.5-10c0-2.7-1-5.4-2.6-7.2
			c-1.6-1.8-4.2-2.9-6.6-2.9C172.9,139.4,168.9,143.7,168.8,149.4 M177.8,143.1c1.4,0,2,0.1,2.8,0.3c1.4,0.5,2.2,1.8,2.2,3.2
			c0,1.6-1,2.8-2.6,3.3l2.6,6.2l-1.8,0l-2.4-5.9l-0.1,0l-1.1,0l-1.2,0l-0.2,0l-0.1,5.8l-1.7,0l0.1-13L177.8,143.1z M177.6,148.8
			c1.6,0,2.2-0.1,2.7-0.5c0.5-0.4,0.8-1,0.8-1.7c0-0.9-0.4-1.6-1.2-1.9c-0.5-0.2-1.2-0.3-2.6-0.3l-1.4,0l0,4.4L177.6,148.8z">
   </path>
  </g>
 </g>
</svg>